<svg data-name="Layer 1" xmlns="http://www.w3.org/2000/svg" viewBox="0 0 48 48"><path d="M22.19 27.1a11.25 11.25 0 1 1 11.25 11.24A11.27 11.27 0 0 1 22.19 27.1m-3 0a14.29 14.29 0 1 0 14.25-14.28A14.3 14.3 0 0 0 19.16 27.1" fill="#b6cad5"/><path d="M33.44 41.66A14.56 14.56 0 1 1 48 27.1a14.57 14.57 0 0 1-14.56 14.56zm0-28.57a14 14 0 1 0 14 14 14 14 0 0 0-14-14zm0 25.52A11.52 11.52 0 1 1 45 27.1a11.53 11.53 0 0 1-11.56 11.51zm0-22.49a11 11 0 1 0 11 11 11 11 0 0 0-11-11z" fill="#d9e4ea"/><path d="M28.25 19.36h10.44v3.48h-6.45v2.24h6v3.49h-6v2.25h6.45v3.48H28.25v-15z" fill="#b6cad5"/><path data-name="path4938" d="M38.15 19.9v2.4H31.7v3.32h6V28h-6v3.33h6.45v2.4h-9.36V19.9h9.36m.54-.54H28.25v15h10.44v-3.53h-6.45v-2.25h6v-3.49h-6v-2.24h6.45v-3.49z" fill="#d9e4ea"/><path fill="#b6cad5" d="M34.19 6.34h5.7l-4.13 4.35h-3.23l1.66-4.35z"/><path d="M38.64 6.88l-3.11 3.27h-2.22l1.25-3.27h4.08m1.25-.54h-5.7l-1.66 4.35h3.23l4.13-4.35z" fill="#d9e4ea"/><path d="M4.59 19.57a1.08 1.08 0 0 0-1.1 1.05v3.43a1.08 1.08 0 0 0 1.1 1.05 1.08 1.08 0 0 0 1.11-1.05v-.41H5v.7h-.77v-4H5V21h.7v-.41a1.08 1.08 0 0 0-1.11-1.02zm3.86.06H7.14v.7h1.31v.73h-.73a.72.72 0 0 0-.74.7v2.58a.72.72 0 0 0 .74.7h1.47v-4.71a.72.72 0 0 0-.74-.7zm0 4.71h-.73v-2.58h.73zm-6.98-4.71H.16v.7h1.31v.73H.74a.72.72 0 0 0-.74.7v2.58a.72.72 0 0 0 .74.7h1.47v-4.71a.72.72 0 0 0-.74-.7zm0 4.71H.74v-2.58h.73zm14.61-6.47l-2.03.74v.66l2.03-.74v-.66zm10.55 4.82v-2.07a1.1 1.1 0 0 0-2.2 0v3.43a1.1 1.1 0 0 0 2.2 0v-.41h-.73v.7h-.74v-1.65zm-1.47-2.36h.74V22h-.74zm-13.22-.7h-.74a.72.72 0 0 0-.73.7v4a.72.72 0 0 0 .73.7h1.48v-6.75h-.74zm0 4.71h-.74v-4h.74zm9.19.66v-4.67a.72.72 0 0 0-.74-.7h-2.94V25h.73v-4.67h.74V25h.74v-4.67h.73V25zm-6.07-5.43A1.08 1.08 0 0 0 14 20.62v3.43a1.11 1.11 0 0 0 2.21 0v-.41h-.74v.7h-.74v-1.65h1.48v-2.07a1.08 1.08 0 0 0-1.15-1.05zm.37 2.43h-.74v-1.67h.74zm6.98-3.72h.74v.7h-.74zm0 6.12a.64.64 0 0 0 .22.49.86.86 0 0 0 .51.21v-5.47h-.73zM8.84 33v-1.86a4 4 0 0 1 0-1 7.7 7.7 0 0 0 0-2.25.61.61 0 0 0-.68-.6h-1.1c-.37 0-.32.08-.32.32v6c0 .29.12.33.35.33s.34 0 .33-.31v-2.36c0-.2 0-.39.28-.37s.51-.06.49.37v2.12c0 .46.17.59.62.54.15 0 .21-.07.14-.2a1.49 1.49 0 0 1-.11-.73zm-1-2.79c-.18 0-.42.08-.42-.26v-1.79c0-.33.23-.24.41-.26s.33.05.32.29 0 .6 0 .9v.86c0 .29-.15.27-.33.25zM25 28.49a1.08 1.08 0 0 0-1.1 1.05v1.36a.72.72 0 0 0 .74.7h.73v1.66h-.73v-.7h-.74V33a1.11 1.11 0 0 0 2.21 0v-1.4a.72.72 0 0 0-.74-.7h-.73v-1.65h.73V30h.74v-.41a1.08 1.08 0 0 0-1.11-1.1zm-3.36-.02a1.09 1.09 0 0 0-1.11 1.05V33a1.11 1.11 0 0 0 2.21 0v-.41H22v.71h-.73v-1.71h1.47v-2.07a1.09 1.09 0 0 0-1.1-1.05zm.36 2.42h-.73v-1.66H22zm-10.78-2.42a1.08 1.08 0 0 0-1.1 1.05V33a1.1 1.1 0 0 0 2.2 0v-.41h-.73v.71h-.74v-1.71h1.47v-2.07a1.08 1.08 0 0 0-1.1-1.05zm.37 2.42h-.74v-1.66h.74zm3.46-2.38h-1.47v5.41h.73v-4.71h.74v4.71h.73v-4.71a.71.71 0 0 0-.73-.7zm3.4 0H17v5.41h.74v-4.71h.73v4.71h.74v-4.71a.72.72 0 0 0-.76-.7z" fill="#272727"/></svg>